<?xml version="1.0" encoding="iso-8859-1"?>
<!-- Generator: Adobe Illustrator 19.0.0, SVG Export Plug-In . SVG Version: 6.00 Build 0)  -->
<!-- License: CC0. Made by SVG Repo: https://www.svgrepo.com/svg/39599/chat -->
<svg version="1.1" id="Layer_1" xmlns="http://www.w3.org/2000/svg"
  xmlns:xlink="http://www.w3.org/1999/xlink" x="0px" y="0px"
  viewBox="0 0 489.144 489.144" style="enable-background:new 0 0 489.144 489.144;"
  xml:space="preserve">
<g id="XMLID_1751_">
	<g id="XMLID_1775_">
		<rect x="7.643" y="30.572" style="fill:#F9B233;" width="473.857" height="282.786"/>
	</g>
	<g id="XMLID_1774_">
		<polygon style="fill:#A48A7B;" points="298.072,275.143 275.142,259.858 114.643,259.858 114.643,152.858 298.072,152.858 		"/>
	</g>
	<g id="XMLID_1773_">
		<polygon style="fill:#CBBBA0;" points="374.5,214 214.002,214 191.072,229.286 191.072,107 374.5,107 		"/>
	</g>
	<g id="XMLID_1772_">
		<rect x="7.643" y="313.358" style="fill:#FAC15C;" width="473.857" height="61.143"/>
	</g>
	<g id="XMLID_1770_">
		<rect x="229.286" y="61.143" style="fill:#1D1D1B;" width="30.571" height="15.286"/>
	</g>
	<g id="XMLID_1769_">
		<path style="fill:#1D1D1B;" d="M183.429,239.89V99.357h198.715v122.286H238.169L183.429,239.89z M198.715,114.644v104.039
			l36.974-12.325h131.169v-91.714C366.858,114.644,198.715,114.644,198.715,114.644z"/>
	</g>
	<g id="XMLID_1768_">
		<polygon style="fill:#1D1D1B;" points="305.715,285.747 250.975,267.501 107,267.501 107,145.214 191.072,145.214
			191.072,160.501 122.286,160.501 122.286,252.214 253.455,252.214 290.429,264.539 290.429,214.001 305.715,214.001 		"/>
	</g>
	<path style="fill:#1D1D1B;" d="M0,22.929v290.429v7.643v61.143h489.144v-61.143v-7.643V22.929H0z M15.286,38.215h458.571v267.5
		H15.286V38.215z M473.857,366.857H15.286V321h458.571L473.857,366.857L473.857,366.857z"/>
	<g id="XMLID_1766_">
		<rect x="30.572" y="336.286" style="fill:#1D1D1B;" width="68.786" height="15.286"/>
	</g>
	<g id="XMLID_1765_">
		<rect x="114.643" y="336.286" style="fill:#1D1D1B;" width="15.286" height="15.286"/>
	</g>
	<g id="XMLID_1764_">
		<rect x="145.215" y="336.286" style="fill:#1D1D1B;" width="15.286" height="15.286"/>
	</g>
	<g id="XMLID_1763_">
		<rect x="175.786" y="336.286" style="fill:#1D1D1B;" width="15.286" height="15.286"/>
	</g>
	<g id="XMLID_1762_">
		<rect x="206.357" y="336.286" style="fill:#1D1D1B;" width="15.286" height="15.286"/>
	</g>
	<g id="XMLID_1760_">
		<rect x="236.929" y="389.786" style="fill:#1D1D1B;" width="15.286" height="53.5"/>
	</g>
	<g id="XMLID_1758_">
		<rect x="183.793" y="450.929" style="fill:#1D1D1B;" width="121.582" height="15.286"/>
	</g>
	<g id="XMLID_1757_">
		<rect x="145.215" y="183.429" style="fill:#1D1D1B;" width="30.571" height="15.286"/>
	</g>
	<g id="XMLID_1756_">
		<rect x="145.215" y="214" style="fill:#1D1D1B;" width="30.571" height="15.286"/>
	</g>
	<g id="XMLID_1755_">
		<rect x="244.572" y="152.857" style="fill:#1D1D1B;" width="15.286" height="15.286"/>
	</g>
	<g id="XMLID_1753_">
		<rect x="275.143" y="152.857" style="fill:#1D1D1B;" width="15.286" height="15.286"/>
	</g>
	<g id="XMLID_1752_">
		<rect x="305.715" y="152.857" style="fill:#1D1D1B;" width="15.286" height="15.286"/>
	</g>
</g>
</svg>
