<?xml version="1.0" encoding="iso-8859-1"?>
<!-- Generator: Adobe Illustrator 19.0.0, SVG Export Plug-In . SVG Version: 6.00 Build 0)  -->
<!-- License: CC0. Made by SVG Repo: https://www.svgrepo.com/svg/202957/business-card-identity -->
<svg version="1.1" id="Layer_1" xmlns="http://www.w3.org/2000/svg"
  xmlns:xlink="http://www.w3.org/1999/xlink" x="0px" y="0px"
  viewBox="0 0 512 512" style="enable-background:new 0 0 512 512;" xml:space="preserve">
<rect x="78.833" y="146.788" style="fill:#E6E6E6;" width="423.851" height="287.952"/>
<g>
	<rect x="78.833" y="146.788" style="fill:#F95428;" width="423.851" height="50.759"/>
	<rect x="78.833" y="368.896" style="fill:#F95428;" width="423.851" height="65.845"/>
</g>
<rect x="9.312" y="77.268" style="fill:#E6E6E6;" width="423.851" height="287.952"/>
<circle style="fill:#F95428;" cx="221.238" cy="197.572" r="42.216"/>
<path style="fill:#2BA5F7;" d="M253.173,225.169c-7.736,8.952-19.171,14.614-31.935,14.614c-12.764,0-24.212-5.662-31.948-14.627
	c7.673-8.878,19.01-14.527,31.662-14.614c0.087,0.012,0.186,0.012,0.286,0.012s0.186,0,0.286-0.012
	C234.164,210.629,245.5,216.291,253.173,225.169z"/>
<path style="fill:#E6E6E6;" d="M221.238,180.941c8.17,0,14.801,6.63,14.801,14.801c0,8.083-6.469,14.652-14.515,14.801
	c-0.099,0-0.199,0-0.298,0c-0.087,0-0.186,0-0.273,0c-8.046-0.149-14.515-6.717-14.515-14.801
	C206.438,187.572,213.056,180.941,221.238,180.941z"/>
<g>
	<rect x="9.312" y="77.268" style="fill:#F7B239;" width="423.851" height="50.759"/>
	<rect x="9.312" y="299.375" style="fill:#F7B239;" width="423.851" height="65.845"/>
</g>
<g>
	<path style="fill:#333333;" d="M442.471,365.219V77.263c0-5.143-4.169-9.312-9.312-9.312H9.312C4.169,67.951,0,72.12,0,77.263
		v287.956c0,5.143,4.169,9.312,9.312,9.312h423.846C438.302,374.531,442.471,370.362,442.471,365.219z M423.846,290.059H18.625
		V137.336h405.221V290.059z M423.846,86.576v32.135H18.625V86.576H423.846z M18.625,355.907v-47.223h405.221v47.223H18.625z"/>
	<path style="fill:#333333;" d="M502.688,137.475h-41.595c-5.143,0-9.312,4.169-9.312,9.312s4.169,9.312,9.312,9.312h32.283v32.144
		h-32.283c-5.143,0-9.312,4.169-9.312,9.312s4.169,9.312,9.312,9.312h32.283v218.556H88.149v-32.271
		c0-5.143-4.169-9.312-9.312-9.312s-9.312,4.169-9.312,9.312v41.583c0,5.143,4.169,9.312,9.312,9.312h423.851
		c5.143,0,9.312-4.169,9.312-9.312v-287.95C512,141.644,507.831,137.475,502.688,137.475z"/>
	<path style="fill:#333333;" d="M221.236,249.096c28.413,0,51.529-23.116,51.529-51.529s-23.116-51.529-51.529-51.529
		s-51.529,23.116-51.529,51.529S192.823,249.096,221.236,249.096z M203.341,225.158c5.26-3.412,11.433-5.288,17.83-5.301
		c0.022,0,0.043,0.004,0.065,0.004c0.02,0,0.04-0.002,0.06-0.002c6.397,0.012,12.569,1.891,17.829,5.304
		c-5.154,3.352-11.295,5.309-17.889,5.309C214.64,230.471,208.496,228.513,203.341,225.158z M215.746,195.747
		c0-3.027,2.462-5.489,5.489-5.489s5.489,2.462,5.489,5.489c0,3.015-2.444,5.466-5.453,5.486c-0.015,0-0.029-0.001-0.043-0.001
		c-0.011,0-0.021,0.001-0.032,0.001C218.187,201.21,215.746,198.76,215.746,195.747z M221.236,164.663
		c18.143,0,32.904,14.761,32.904,32.904c0,4.758-1.023,9.279-2.848,13.366c-2.615-1.881-5.389-3.514-8.293-4.869
		c1.491-3.134,2.352-6.623,2.352-10.318c0-13.297-10.817-24.114-24.114-24.114c-13.297,0-24.114,10.817-24.114,24.114
		c0,3.693,0.859,7.18,2.349,10.313c-2.904,1.355-5.678,2.987-8.294,4.866c-1.823-4.085-2.845-8.603-2.845-13.359
		C188.332,179.424,203.092,164.663,221.236,164.663z"/>
	<path style="fill:#333333;" d="M353.472,321.721h-94.124c-5.143,0-9.312,4.169-9.312,9.312c0,5.143,4.169,9.312,9.312,9.312h94.124
		c5.143,0,9.312-4.169,9.312-9.312C362.784,325.891,358.615,321.721,353.472,321.721z"/>
	<path style="fill:#333333;" d="M227.686,321.721h-60.22c-5.143,0-9.312,4.169-9.312,9.312c0,5.143,4.169,9.312,9.312,9.312h60.22
		c5.143,0,9.312-4.169,9.312-9.312C236.998,325.891,232.829,321.721,227.686,321.721z"/>
	<path style="fill:#333333;" d="M137.666,321.721H88.999c-5.143,0-9.312,4.169-9.312,9.312c0,5.143,4.169,9.312,9.312,9.312h48.667
		c5.143,0,9.312-4.169,9.312-9.312C146.978,325.891,142.809,321.721,137.666,321.721z"/>
	<path style="fill:#333333;" d="M169.465,278.891h103.542c5.143,0,9.312-4.169,9.312-9.312c0-5.143-4.169-9.312-9.312-9.312H169.465
		c-5.143,0-9.312,4.169-9.312,9.312C160.152,274.721,164.322,278.891,169.465,278.891z"/>
	<path style="fill:#333333;" d="M332.192,192.589h58.84c5.143,0,9.312-4.169,9.312-9.312c0-5.143-4.169-9.312-9.312-9.312h-58.84
		c-5.143,0-9.312,4.169-9.312,9.312C322.88,188.42,327.049,192.589,332.192,192.589z"/>
	<path style="fill:#333333;" d="M304.737,192.589h2.414c5.143,0,9.312-4.169,9.312-9.312c0-5.143-4.169-9.312-9.312-9.312h-2.414
		c-5.143,0-9.312,4.169-9.312,9.312C295.424,188.42,299.594,192.589,304.737,192.589z"/>
	<path style="fill:#333333;" d="M391.032,201.281h-17.453c-5.143,0-9.312,4.169-9.312,9.312s4.169,9.312,9.312,9.312h17.453
		c5.143,0,9.312-4.169,9.312-9.312S396.175,201.281,391.032,201.281z"/>
	<path style="fill:#333333;" d="M304.737,219.906h41.526c5.143,0,9.312-4.169,9.312-9.312s-4.169-9.312-9.312-9.312h-41.526
		c-5.143,0-9.312,4.169-9.312,9.312S299.594,219.906,304.737,219.906z"/>
	<path style="fill:#333333;" d="M114.488,192.589h23.246c5.143,0,9.312-4.169,9.312-9.312c0-5.143-4.169-9.312-9.312-9.312h-23.246
		c-5.143,0-9.312,4.169-9.312,9.312C105.176,188.42,109.345,192.589,114.488,192.589z"/>
	<path style="fill:#333333;" d="M51.439,192.589h38.214c5.143,0,9.312-4.169,9.312-9.312c0-5.143-4.169-9.312-9.312-9.312H51.439
		c-5.143,0-9.312,4.169-9.312,9.312C42.127,188.42,46.296,192.589,51.439,192.589z"/>
	<path style="fill:#333333;" d="M137.734,201.281H51.439c-5.143,0-9.312,4.169-9.312,9.312s4.169,9.312,9.312,9.312h86.295
		c5.143,0,9.312-4.169,9.312-9.312S142.877,201.281,137.734,201.281z"/>
	<path style="fill:#333333;" d="M354.335,401.187c0,5.143,4.169,9.312,9.312,9.312h96.849c5.143,0,9.312-4.169,9.312-9.312
		c0-5.143-4.169-9.312-9.312-9.312h-96.849C358.504,391.875,354.335,396.044,354.335,401.187z"/>
	<path style="fill:#333333;" d="M306.531,391.875c-5.143,0-9.312,4.169-9.312,9.312c0,5.143,4.169,9.312,9.312,9.312h24.833
		c5.143,0,9.312-4.169,9.312-9.312c0-5.143-4.169-9.312-9.312-9.312H306.531z"/>
	<circle style="fill:#333333;" cx="39.572" cy="103.194" r="9.312"/>
	<circle style="fill:#333333;" cx="96.03" cy="103.194" r="9.312"/>
	<circle style="fill:#333333;" cx="67.799" cy="103.194" r="9.312"/>
</g>
</svg>
